<svg xmlns="http://www.w3.org/2000/svg" width="319" height="319" viewBox="0 0 319 319">
  <g id="Groupe_32674" data-name="Groupe 32674" transform="translate(7872 7542)">
    <rect id="Rectangle_12505" data-name="Rectangle 12505" width="319" height="319" rx="159.5" transform="translate(-7872 -7542)" fill="#fff"/>
    <g id="Groupe_32673" data-name="Groupe 32673" transform="translate(-916.444 27.659)">
      <path id="Tracé_8787" data-name="Tracé 8787" d="M101.729,72.4a10.793,10.793,0,0,1-4.487-.213A108.936,108.936,0,0,1,109.023,58.1L145.3,45.209c2.591-3.932,3.4-6.516,5.15-7.6,14.144-8.8,30-12.411,46.32-13.35,9.769-.562,19.642.874,29.475,1.216,7.777.271,15.563.311,23.346.335,15.233.048,30.466.014,45.846.014-3.387,11.358-19.329,20.554-32.761,18.819l10.8-7.618c-8.552-6.088-25.482-3.457-36.481,6.424,5.8,2.524,10.536,5.812,15.637,6.551,12.137,1.759,23.5-1.5,34.193-7.578,2.717-1.544,6.944-2.915,9.491-1.9,30.161,12.06,53.826,31.553,68.039,61.384.431.9.379,2.036.928,5.292-26.524-27.516-57.31-37.867-95.494-34.332C285,81.983,297.31,91.1,303.855,107.615,258.22,81.77,212.9,74.475,165.137,98.556c-8.606-6.874-18.342-12.713-30.427-7.068-9.3,4.346-5.449,12.553-3.337,22.1-12.032-12.32-28.5-15.773-32.962-33.041,1.185-1.345,3.049-3.465,5.639-6.415a4.755,4.755,0,0,0,.07-3.186l-2.39,1.459m87.633-18.3,3.529-8.752L191.2,43.8l-7.163,3.435-10.016,4.8A91.755,91.755,0,0,0,189.363,54.1Z" transform="translate(-7027.854 -7518.126)" fill="#10131e"/>
      <path id="Tracé_8790" data-name="Tracé 8790" d="M255.88,120.162c-8.021,10.527-11.792,12.927-19.57,12.775,6.213-15.414,5.231-26.717-2.825-32.519,1.777,23.1-10.286,39.781-28.673,39.557,1.81-3.253,3.83-6.382,5.368-9.733,7.759-16.907,2.6-34.079-13.183-43.832-15.26-9.433-31.744-10.211-48.659-6.112-5.349,1.3-9.057,1.112-10.221-5.787,21.487-12.7,44.644-14.649,68.675-10.116,16.506,3.113,31.811,9.082,43.572,21.756C259.465,95.956,262.506,107.016,255.88,120.162Z" transform="translate(-6997.442 -7489.823)" fill="#fe0921"/>
      <path id="Tracé_8791" data-name="Tracé 8791" d="M198.518,119.685c-1.528.533-3.139,1.106-3.759.559-16.413-14.457-25.206-13.756-37.841,3.727-14.489-10.831-37.483-12.655-37.18-38.7a49.138,49.138,0,0,1,5.781,2.55c13.733,8.056,21.383,6.287,30.113-7.063a8.718,8.718,0,0,1,1.589-2c6.871-5.686,26.6-4.62,35.717,1.892,10.572,7.543,15,19.657,10.8,30.381C202.6,113.939,200.538,116.492,198.518,119.685Z" transform="translate(-7011.118 -7480.226)" fill="#fe071f"/>
      <path id="Tracé_8792" data-name="Tracé 8792" d="M264.418,133.434c-6.62-16.361-16.965-29.024-30.17-39.508A16.789,16.789,0,0,1,229.608,89c-5.348-10.32-10.435-20.776-15.5-30.954,24.172,4.711,45.821,15.987,58.292,40.2,10.558,20.5,8.684,41.062-2.4,61.8C268.061,150.718,266.331,142.407,264.418,133.434Z" transform="translate(-6940.898 -7492.89)" fill="#121521"/>
      <path id="Tracé_8793" data-name="Tracé 8793" d="M245.764,112.669c5.218,12.638,5.619,24.5-1.417,38.141-3.725-20.647-12.474-36-28.728-43.185l-2.51-28.4C227.481,85.774,238.013,97.326,245.764,112.669Z" transform="translate(-6941.646 -7477.131)" fill="#fe0c23"/>
      <path id="Tracé_8852" data-name="Tracé 8852" d="M156.045,46.03c-4.776-.482-8.991-1.285-14.779-2.388L158.443,35.4l1.692,1.552a86.671,86.671,0,0,1-4.091,9.073Z" transform="translate(-7002.075 -7509.738)" fill="#dddddf"/>
    </g>
  </g>
</svg>
