<svg xmlns="http://www.w3.org/2000/svg" width="725.718" height="284.068" viewBox="0 0 725.718 284.068">
  <g id="file" transform="translate(-9.072 -23.794)">
    <path id="Tracé_8787" data-name="Tracé 8787" d="M104.818,105.626a18.222,18.222,0,0,1-7.576-.36c5.731-8.668,12.811-16.226,19.89-23.785l61.251-21.763c4.374-6.638,5.748-11,8.694-12.833,23.878-14.854,50.648-20.953,78.2-22.538,16.492-.949,33.161,1.475,49.762,2.053,13.129.457,26.275.525,39.414.566,25.717.081,51.435.024,77.4.024-5.718,19.176-32.632,34.7-55.31,31.772L394.768,45.9c-14.438-10.278-43.021-5.836-61.59,10.846,9.8,4.261,17.788,9.812,26.4,11.059,20.491,2.969,39.672-2.532,57.727-12.794,4.587-2.607,11.724-4.921,16.023-3.2,50.919,20.36,90.873,53.27,114.868,103.632.727,1.525.64,3.438,1.567,8.935-44.779-46.454-96.755-63.929-161.219-57.961,25.688,15.385,46.465,30.773,57.515,58.658-77.043-43.633-153.549-55.948-234.192-15.294-14.53-11.605-30.966-21.463-51.368-11.932-15.709,7.338-9.2,21.193-5.634,37.308-20.314-20.8-48.113-26.629-55.649-55.782,2-2.27,5.148-5.85,9.52-10.83a8.027,8.027,0,0,0,.119-5.379l-4.035,2.464m147.947-30.9,5.958-14.776-2.857-2.62-12.093,5.8-16.909,8.108C236.637,73.1,243.752,74.451,252.766,74.723Z" transform="translate(183.218 0.652)" fill="#10131e"/>
    <path id="Tracé_8788" data-name="Tracé 8788" d="M186.9,260.059a8.743,8.743,0,0,1-.864-1.112,15.9,15.9,0,0,0-3.828-2.323s-.026.241-.047-.615a7.031,7.031,0,0,0-2.874-2.326s-.053.242-.071-.616a7,7,0,0,0-2.873-2.329s-.052.242-.066-.618a6.989,6.989,0,0,0-2.857-2.347s-.057.247-.067-.618a6.911,6.911,0,0,0-2.874-2.333s-.055.247-.065-.615a6.951,6.951,0,0,0-2.866-2.344s-.057.249-.066-.613a6.965,6.965,0,0,0-2.868-2.345s-.054.251-.068-.608a6.993,6.993,0,0,0-2.866-2.342s-.058.249-.1-.672a8.931,8.931,0,0,0-3.079-2.82,9.407,9.407,0,0,0-1.858-2.627,15.184,15.184,0,0,0-3.794-2.738s-.039.257-.052-.609a6.937,6.937,0,0,0-2.875-2.337s-.061.258-.068-.609a6.9,6.9,0,0,0-2.869-2.342s-.063.26-.069-.608a6.891,6.891,0,0,0-2.867-2.345s-.065.261-.069-.607a6.887,6.887,0,0,0-2.863-2.349s-.068.263-.071-.606a6.868,6.868,0,0,0-2.865-2.348s-.069.265-.073-.6a6.864,6.864,0,0,0-2.866-2.346s-.069.277-.026-.539a7.012,7.012,0,0,0-1.537-2.585c-3.028-2.938-5.632-5.127-8.237-7.315,0,0,.1-.258-.366-1.134-8.918-9.374-17.367-17.873-28.592-29.163v91.236s.159.067-1.181-.237c-10.957-.3-20.573-.3-31.428-.3V24.571H97.455v77.376l4.185,2.484c11.573-12.326,23.106-24.691,34.74-36.96,4.725-4.982,10.571-9.143,14.363-14.726,18.236-26.844,43.866-33.152,73.975-26.512C190.666,61.835,156.7,96.094,122.6,130.208c-5.53,5.531-9.913,10.372.455,15.12,0,0,.074-.185.1.663A7.031,7.031,0,0,0,126,148.307s.056-.2.081.649a6.957,6.957,0,0,0,2.87,2.3s.049-.206.084.644a7.031,7.031,0,0,0,2.847,2.3s.06-.207.078.651a6.9,6.9,0,0,0,2.874,2.3s.05-.209.084.642a7.036,7.036,0,0,0,2.846,2.31s.061-.212.079.647a6.877,6.877,0,0,0,2.872,2.3s.053-.212.083.641a7,7,0,0,0,2.851,2.31s.059-.215.079.644a6.89,6.89,0,0,0,2.864,2.3s.059-.215.08.643a6.9,6.9,0,0,0,2.861,2.3s.059-.216.079.642a6.921,6.921,0,0,0,2.86,2.312s.059-.219.078.638a6.944,6.944,0,0,0,2.861,2.317s.056-.222.076.636a6.926,6.926,0,0,0,2.862,2.313s.058-.224.071.636a6.922,6.922,0,0,0,2.866,2.324s.054-.228.079.629a6.967,6.967,0,0,0,2.866,2.309s.059-.227.071.635a6.869,6.869,0,0,0,2.88,2.309s.051-.226.075.632a6.968,6.968,0,0,0,2.855,2.322s.061-.23.068.635a6.846,6.846,0,0,0,2.878,2.317s.051-.23.077.625a7.042,7.042,0,0,0,2.86,2.329s.053-.232.066.627a6.967,6.967,0,0,0,2.866,2.335s.051-.236.071.62a7.024,7.024,0,0,0,2.868,2.332s.05-.237.071.619a7.032,7.032,0,0,0,2.869,2.331s.05-.238.07.618a7.028,7.028,0,0,0,2.87,2.331s.05-.239.069.618a7.017,7.017,0,0,0,2.87,2.333s.051-.241.071.614a7.028,7.028,0,0,0,2.877,2.326s.05-.24.073.616a7.094,7.094,0,0,0,2.847,2.355s.053-.245.068.612a7,7,0,0,0,2.877,2.332s.053-.245.079.611a7.065,7.065,0,0,0,2.863,2.337s.053-.246.066.614a6.963,6.963,0,0,0,2.882,2.329s.041-.251.1.774c3.649,4.827,7.578,8.366,10.74,12.492a107.89,107.89,0,0,1,11.53,18.46C213.228,259.706,200.062,259.882,186.9,260.059Z" transform="translate(106.545 0)" fill="#fc051d"/>
    <path id="Tracé_8789" data-name="Tracé 8789" d="M161.961,259.24h-32.35V150.9C98.6,159.24,88.637,137.847,75.8,116.56h52.227V58.074c-22.4,0-45.034-2.4-66.936.593C32.234,62.605,19.923,46.314,9.072,24.117c51.333,0,102.022,0,153.29,2.405.526,26.859.523,51.314.411,75.767Q162.412,180.765,161.961,259.24Z" transform="translate(0 0.628)" fill="#10131e"/>
    <path id="Tracé_8790" data-name="Tracé 8790" d="M336.932,160.073c-13.542,17.773-19.908,21.824-33.04,21.567,10.489-26.023,8.831-45.106-4.769-54.9,3,39.005-17.366,67.161-48.407,66.782,3.056-5.492,6.466-10.775,9.063-16.432,13.1-28.543,4.387-57.535-22.256-74-25.763-15.925-53.593-17.239-82.15-10.319-9.031,2.188-15.29,1.877-17.256-9.77,36.276-21.436,75.37-24.731,115.942-17.078,27.866,5.256,53.705,15.332,73.561,36.73C342.984,119.207,348.119,137.879,336.932,160.073Z" transform="translate(262.693 74.621)" fill="#fe0921"/>
    <path id="Tracé_8791" data-name="Tracé 8791" d="M252.741,150.4c-2.58.9-5.3,1.867-6.346.943-27.709-24.408-42.555-23.223-63.886,6.292-24.461-18.286-63.281-21.365-62.769-65.342,2.7,1.173,6.451,2.365,9.76,4.305,23.185,13.6,36.1,10.614,50.839-11.925a14.719,14.719,0,0,1,2.683-3.376c11.6-9.6,44.9-7.8,60.3,3.194,17.849,12.735,25.332,33.186,18.24,51.291C259.639,140.7,256.152,145.009,252.741,150.4Z" transform="translate(226.953 99.691)" fill="#fe071f"/>
    <path id="Tracé_8792" data-name="Tracé 8792" d="M299.043,185.32c-11.176-27.621-28.642-49-50.935-66.7-2.967-2.356-6.145-5.053-7.834-8.313-9.029-17.423-17.617-35.075-26.164-52.259,40.809,7.953,77.358,26.991,98.413,67.871,17.824,34.606,14.661,69.324-4.048,104.339C305.194,214.5,302.273,200.469,299.043,185.32Z" transform="translate(410.457 66.603)" fill="#121521"/>
    <path id="Tracé_8793" data-name="Tracé 8793" d="M268.239,135.687c8.809,21.336,9.486,41.365-2.393,64.392-6.288-34.857-21.06-60.784-48.5-72.907l-4.237-47.947C237.373,90.281,255.154,109.784,268.239,135.687Z" transform="translate(408.507 107.783)" fill="#fe0c23"/>
    <path id="Tracé_8794" data-name="Tracé 8794" d="M61.855,259.419c-.961-52.459-.664-104.776-.423-157.092.113-24.454.116-48.908.495-74.741A13.935,13.935,0,0,1,68.345,24.1c.727,77.338.727,154.794.727,234.658,10.855,0,20.472,0,31.413.219C88.9,259.318,76,259.44,61.855,259.419Z" transform="translate(101.341 0.591)" fill="#bea6ab"/>
    <path id="Tracé_8797" data-name="Tracé 8797" d="M88.182,142.028c-10.446-3.652-6.062-8.494-.532-14.024,34.107-34.114,68.069-68.373,103.008-103.075-.466,3.281-.913,7.908-3.415,10.682-12.918,14.323-26.363,28.171-39.893,43.251-7.349,8.626-14.428,16.184-21.2,24.764C107.729,110.439,96.723,124.348,88.182,142.028Z" transform="translate(141.493 2.204)" fill="#b4aaaf"/>
    <path id="Tracé_8803" data-name="Tracé 8803" d="M76.066,163.618c-1.123-28.488-1.123-57.587-1.123-90.626C86.167,84.283,94.616,92.781,103.4,102.2c-6.9-4.444-14.127-9.808-21.359-15.171l-4.854.745C77.189,112.852,77.189,137.93,76.066,163.618Z" transform="translate(128.08 95.661)" fill="#bea6ab"/>
    <path id="Tracé_8804" data-name="Tracé 8804" d="M105.846,105.276c12.592-1.244,25.759-1.421,41.329-1.294l4.495.567C136.587,105.147,121.5,105.745,105.846,105.276Z" transform="translate(188.169 155.851)" fill="#b4aaaf"/>
    <path id="Tracé_8805" data-name="Tracé 8805" d="M140.343,124.281c-1.187.665-1.884.578-3.624.35-5.312-6.369-9.346-12.778-13.934-18.764-3.162-4.126-7.09-7.665-10.861-12.455A418.177,418.177,0,0,1,140.343,124.281Z" transform="translate(199.987 135.365)" fill="#bea6ab"/>
    <path id="Tracé_8806" data-name="Tracé 8806" d="M84.795,83.587a23.6,23.6,0,0,1,7.531,6.454c-.232.787-1.537.915-1.537.915A56.951,56.951,0,0,1,84.795,83.587Z" transform="translate(147.237 116.262)" fill="#bea6ab"/>
    <path id="Tracé_8807" data-name="Tracé 8807" d="M90.154,89.177c.8-.328,1.751.166,2.839,1.5C92.188,91,91.249,90.5,90.154,89.177Z" transform="translate(157.656 126.94)" fill="#b4aaaf"/>
    <path id="Tracé_8808" data-name="Tracé 8808" d="M91.151,90.18c.8-.328,1.75.164,2.84,1.493C93.186,92.006,92.247,91.5,91.151,90.18Z" transform="translate(159.594 128.891)" fill="#b4aaaf"/>
    <path id="Tracé_8809" data-name="Tracé 8809" d="M111.738,91.911c-.781.319-1.735-.173-2.827-1.5C109.7,90.09,110.634,90.6,111.738,91.911Z" transform="translate(194.128 129.353)" fill="#b4aaaf"/>
    <path id="Tracé_8810" data-name="Tracé 8810" d="M92.148,91.183c.795-.328,1.749.164,2.839,1.492C94.185,93.008,93.246,92.5,92.148,91.183Z" transform="translate(161.534 130.84)" fill="#b4aaaf"/>
    <path id="Tracé_8811" data-name="Tracé 8811" d="M112.728,92.915c-.774.317-1.719-.176-2.814-1.5C110.7,91.091,111.626,91.6,112.728,92.915Z" transform="translate(196.08 131.298)" fill="#b4aaaf"/>
    <path id="Tracé_8812" data-name="Tracé 8812" d="M93.147,92.184c.792-.328,1.745.163,2.839,1.488C95.186,94.005,94.248,93.5,93.147,92.184Z" transform="translate(163.476 132.787)" fill="#b4aaaf"/>
    <path id="Tracé_8813" data-name="Tracé 8813" d="M113.74,93.911c-.782.32-1.738-.169-2.83-1.492C111.7,92.09,112.635,92.6,113.74,93.911Z" transform="translate(198.013 133.245)" fill="#b4aaaf"/>
    <path id="Tracé_8814" data-name="Tracé 8814" d="M94.17,93.206c.775-.337,1.8.21,3.119,1.628C96.531,95.167,95.475,94.629,94.17,93.206Z" transform="translate(165.466 134.778)" fill="#b4aaaf"/>
    <path id="Tracé_8815" data-name="Tracé 8815" d="M96.065,95.016c.837-.278,1.849.355,3.03,1.889C98.255,97.18,97.248,96.554,96.065,95.016Z" transform="translate(169.15 138.36)" fill="#b4aaaf"/>
    <path id="Tracé_8816" data-name="Tracé 8816" d="M97.142,96.188c.782-.318,1.732.176,2.823,1.5C99.174,98.015,98.242,97.508,97.142,96.188Z" transform="translate(171.245 140.581)" fill="#b4aaaf"/>
    <path id="Tracé_8817" data-name="Tracé 8817" d="M98.139,97.189c.783-.318,1.736.177,2.824,1.507C100.168,99.022,99.238,98.511,98.139,97.189Z" transform="translate(173.183 142.529)" fill="#b4aaaf"/>
    <path id="Tracé_8818" data-name="Tracé 8818" d="M99.135,98.195c.786-.319,1.738.175,2.824,1.5C101.162,100.025,100.231,99.516,99.135,98.195Z" transform="translate(175.119 144.482)" fill="#b4aaaf"/>
    <path id="Tracé_8819" data-name="Tracé 8819" d="M100.131,99.2c.785-.322,1.74.167,2.828,1.493C102.162,101.023,101.232,100.517,100.131,99.2Z" transform="translate(177.057 146.434)" fill="#b4aaaf"/>
    <path id="Tracé_8820" data-name="Tracé 8820" d="M101.13,100.2c.78-.314,1.727.181,2.81,1.511C103.149,102.032,102.223,101.52,101.13,100.2Z" transform="translate(178.998 148.384)" fill="#b4aaaf"/>
    <path id="Tracé_8821" data-name="Tracé 8821" d="M102.125,101.205c.775-.316,1.726.174,2.817,1.5C104.155,103.026,103.229,102.519,102.125,101.205Z" transform="translate(180.934 150.339)" fill="#b4aaaf"/>
    <path id="Tracé_8822" data-name="Tracé 8822" d="M103.125,102.206c.774-.316,1.725.174,2.816,1.5C105.155,104.026,104.229,103.519,103.125,102.206Z" transform="translate(182.878 152.284)" fill="#b4aaaf"/>
    <path id="Tracé_8823" data-name="Tracé 8823" d="M104.164,103.262c.77-.4,1.853.1,3.318,1.45C106.734,105.1,105.605,104.627,104.164,103.262Z" transform="translate(184.897 154.257)" fill="#b4aaaf"/>
    <path id="Tracé_8824" data-name="Tracé 8824" d="M86.749,66.858c-.778.313-1.716-.176-2.779-1.494C84.759,65.043,85.674,65.55,86.749,66.858Z" transform="translate(145.632 80.647)" fill="#b4aaaf"/>
    <path id="Tracé_8825" data-name="Tracé 8825" d="M101.739,81.883c-.773.316-1.717-.172-2.8-1.492C99.727,80.066,100.647,80.573,101.739,81.883Z" transform="translate(174.744 109.862)" fill="#b4aaaf"/>
    <path id="Tracé_8826" data-name="Tracé 8826" d="M90.746,70.858c-.772.316-1.709-.171-2.785-1.483C88.742,69.052,89.661,69.554,90.746,70.858Z" transform="translate(153.393 88.443)" fill="#b4aaaf"/>
    <path id="Tracé_8827" data-name="Tracé 8827" d="M91.762,71.85c-.782.322-1.733-.157-2.809-1.465C89.751,70.053,90.672,70.55,91.762,71.85Z" transform="translate(155.323 90.396)" fill="#b4aaaf"/>
    <path id="Tracé_8828" data-name="Tracé 8828" d="M92.748,72.859c-.774.317-1.715-.169-2.791-1.481C90.742,71.054,91.662,71.555,92.748,72.859Z" transform="translate(157.275 92.337)" fill="#b4aaaf"/>
    <path id="Tracé_8829" data-name="Tracé 8829" d="M93.757,73.855c-.781.322-1.729-.159-2.8-1.47C91.747,72.054,92.669,72.553,93.757,73.855Z" transform="translate(159.209 94.288)" fill="#b4aaaf"/>
    <path id="Tracé_8830" data-name="Tracé 8830" d="M94.755,74.856c-.781.322-1.728-.16-2.8-1.471C92.745,73.055,93.668,73.554,94.755,74.856Z" transform="translate(161.153 96.233)" fill="#b4aaaf"/>
    <path id="Tracé_8831" data-name="Tracé 8831" d="M95.752,75.864c-.78.319-1.726-.166-2.8-1.48C93.743,74.057,94.664,74.559,95.752,75.864Z" transform="translate(163.094 98.18)" fill="#b4aaaf"/>
    <path id="Tracé_8832" data-name="Tracé 8832" d="M96.748,76.872c-.776.316-1.724-.171-2.8-1.487C94.738,75.06,95.658,75.565,96.748,76.872Z" transform="translate(165.033 100.128)" fill="#b4aaaf"/>
    <path id="Tracé_8833" data-name="Tracé 8833" d="M88.749,68.851c-.772.317-1.71-.167-2.785-1.478C86.745,67.049,87.664,67.549,88.749,68.851Z" transform="translate(149.509 84.549)" fill="#b4aaaf"/>
    <path id="Tracé_8834" data-name="Tracé 8834" d="M97.746,77.872c-.775.317-1.723-.167-2.8-1.483C95.734,76.062,96.654,76.566,97.746,77.872Z" transform="translate(166.972 102.078)" fill="#b4aaaf"/>
    <path id="Tracé_8835" data-name="Tracé 8835" d="M98.747,78.883c-.778.314-1.729-.174-2.806-1.493C96.735,77.066,97.654,77.573,98.747,78.883Z" transform="translate(168.909 104.027)" fill="#b4aaaf"/>
    <path id="Tracé_8836" data-name="Tracé 8836" d="M99.745,79.873c-.771.319-1.718-.165-2.8-1.48C97.724,78.066,98.647,78.568,99.745,79.873Z" transform="translate(170.853 105.975)" fill="#b4aaaf"/>
    <path id="Tracé_8837" data-name="Tracé 8837" d="M100.755,80.873c-.779.32-1.736-.162-2.817-1.477C98.734,79.065,99.656,79.568,100.755,80.873Z" transform="translate(172.792 107.92)" fill="#b4aaaf"/>
    <path id="Tracé_8838" data-name="Tracé 8838" d="M87.764,67.846c-.78.32-1.728-.162-2.8-1.47C85.754,66.048,86.675,66.546,87.764,67.846Z" transform="translate(147.559 82.607)" fill="#b4aaaf"/>
    <path id="Tracé_8839" data-name="Tracé 8839" d="M110.721,90.925c-.774.31-1.715-.19-2.8-1.521C108.7,89.087,109.629,89.6,110.721,90.925Z" transform="translate(192.205 127.396)" fill="#b4aaaf"/>
    <path id="Tracé_8840" data-name="Tracé 8840" d="M102.754,82.881c-.784.32-1.741-.164-2.82-1.482C100.735,81.068,101.658,81.572,102.754,82.881Z" transform="translate(176.672 111.815)" fill="#b4aaaf"/>
    <path id="Tracé_8841" data-name="Tracé 8841" d="M103.738,83.893c-.771.313-1.716-.178-2.8-1.5C101.719,82.071,102.641,82.58,103.738,83.893Z" transform="translate(178.623 113.758)" fill="#b4aaaf"/>
    <path id="Tracé_8842" data-name="Tracé 8842" d="M104.741,84.9c-.779.314-1.73-.178-2.81-1.5C102.723,83.074,103.646,83.585,104.741,84.9Z" transform="translate(180.555 115.71)" fill="#b4aaaf"/>
    <path id="Tracé_8843" data-name="Tracé 8843" d="M105.739,85.9c-.776.315-1.725-.177-2.812-1.5C103.715,84.078,104.64,84.586,105.739,85.9Z" transform="translate(182.493 117.661)" fill="#b4aaaf"/>
    <path id="Tracé_8844" data-name="Tracé 8844" d="M106.739,86.9c-.775.315-1.725-.177-2.814-1.5C104.712,85.08,105.638,85.588,106.739,86.9Z" transform="translate(184.433 119.609)" fill="#b4aaaf"/>
    <path id="Tracé_8845" data-name="Tracé 8845" d="M87.076,86.838c-.5-.638.8-.766,1.457-.8a2.466,2.466,0,0,1,1.9,1.749C89.544,88.192,88.561,87.834,87.076,86.838Z" transform="translate(151.452 121.02)" fill="#b4aaaf"/>
    <path id="Tracé_8846" data-name="Tracé 8846" d="M107.738,87.9c-.776.316-1.726-.176-2.815-1.5C105.71,86.081,106.637,86.589,107.738,87.9Z" transform="translate(186.374 121.557)" fill="#b4aaaf"/>
    <path id="Tracé_8847" data-name="Tracé 8847" d="M88.159,87.172c.8-.329,1.75.163,2.841,1.491C90.2,89,89.257,88.495,88.159,87.172Z" transform="translate(153.778 123.04)" fill="#b4aaaf"/>
    <path id="Tracé_8848" data-name="Tracé 8848" d="M108.737,88.907c-.777.316-1.727-.176-2.816-1.5C106.71,87.082,107.637,87.591,108.737,88.907Z" transform="translate(188.315 123.504)" fill="#b4aaaf"/>
    <path id="Tracé_8849" data-name="Tracé 8849" d="M89.157,88.174c.8-.328,1.752.165,2.841,1.494C91.193,90,90.253,89.5,89.157,88.174Z" transform="translate(155.718 124.989)" fill="#b4aaaf"/>
    <path id="Tracé_8850" data-name="Tracé 8850" d="M109.74,89.9c-.775.316-1.728-.174-2.82-1.494C107.707,88.084,108.634,88.59,109.74,89.9Z" transform="translate(190.256 125.451)" fill="#b4aaaf"/>
    <path id="Tracé_8851" data-name="Tracé 8851" d="M89.763,69.849c-.781.32-1.733-.16-2.807-1.469C87.754,68.051,88.673,68.55,89.763,69.849Z" transform="translate(151.44 86.502)" fill="#b4aaaf"/>
    <path id="Tracé_8852" data-name="Tracé 8852" d="M166.217,53.342c-8.064-.814-15.18-2.17-24.951-4.031l29-13.906,2.857,2.62A146.33,146.33,0,0,1,166.217,53.342Z" transform="translate(257.039 22.575)" fill="#dddddf"/>
    <path id="Tracé_8853" data-name="Tracé 8853" d="M100.11,54.078c.479-1.464,1.824-2.286,3.169-3.107a8.292,8.292,0,0,1,.34,4.393C102.23,55.426,101.6,55.073,100.11,54.078Z" transform="translate(177.015 52.843)" fill="#fcfcfc"/>
  </g>
</svg>
